#!OML:ASF F:\twosubjects\two\Thursday\Session 1\justin.ASF
:FULLY-SPECIFIED
:DEGREES
509
root 13.3394 7.54627 -16.3879 -1.04066 -75.4749 -1.65021
lowerback 33.7885 2.41146 1.13275
upperback 8.73775 3.08971 5.28491
thorax -7.85879 1.02748 3.90002
lowerneck -18.4647 11.8306 0.104522
upperneck 7.63532 16.3481 -4.28682
head 5.60779 7.64865 0.295919
rclavicle -1.51076e-014 5.24792e-014
rhumerus -26.7857 -30.8288 -64.2119
rradius 35.6654
rwrist -4.83532
rhand -16.927 15.8017
rfingers 7.12502
rthumb 9.30583 -13.973
lclavicle -1.51076e-014 5.24792e-014
lhumerus -24.3951 14.6915 79.3959
lradius 39.0032
lwrist -14.2624
lhand -0.563146 35.3197
lfingers 7.12502
lthumb 25.0509 63.6968
rfemur -272.841 -101.426 199.199
rtibia 155.941
rfoot -37.2665 33.5345
rtoes -21.9418
lfemur -63.6294 92.943 16.1618
ltibia 153.316
lfoot -51.6387 -41.2854
ltoes -15.3154
510
root 13.3474 7.67545 -16.4071 -0.492102 -75.4403 -1.86686
lowerback 33.6763 2.43734 1.02884
upperback 8.65613 3.10854 5.36846
thorax -7.92076 1.04159 4.03798
lowerneck -18.4686 11.9023 0.411098
upperneck 7.53332 16.4319 -4.7726
head 5.64675 7.66166 0.118449
rclavicle 5.88403e-014 -4.77083e-014
rhumerus -26.7953 -30.5789 -64.2435
rradius 35.7367
rwrist -4.89323
rhand -16.5874 15.805
rfingers 7.12502
rthumb 9.63346 -13.9547
lclavicle 5.88403e-014 -4.77083e-014
lhumerus -24.5757 14.5394 79.4286
lradius 39.1677
lwrist -13.989
lhand -0.28919 35.4379
lfingers 7.12502
lthumb 25.3134 63.7782
rfemur -271.81 -103.14 199.769
rtibia 155.012
rfoot -37.525 32.1859
rtoes -22.8383
lfemur 15.3 91.6719 94.1568
ltibia 152.388
lfoot -50.5771 -40.5394
ltoes -16.8172
511
root 13.3427 7.81415 -16.4041 0.101023 -75.7278 -2.0206
lowerback 33.2521 2.49303 0.97204
upperback 8.60399 3.16692 5.38783
thorax -7.82619 1.07811 4.07288
lowerneck -18.6416 12.01 0.209916
upperneck 7.61563 16.628 -4.75523
head 5.68637 7.74558 0.18473
rclavicle 7.95139e-015 3.81667e-014
rhumerus -26.6858 -30.1727 -64.3872
rradius 35.6131
rwrist -4.72521
rhand -16.9659 15.8434
rfingers 7.12502
rthumb 9.26824 -13.9329
lclavicle 7.95139e-015 3.81667e-014
lhumerus -24.8248 14.3783 79.3983
lradius 39.4281
lwrist -13.6314
lhand -0.0629981 35.7735
lfingers 7.12502
lthumb 25.53 64.0829
rfemur -270.954 -105.052 200.118
rtibia 154.078
rfoot -37.7643 31.311
rtoes -23.3296
lfemur 56.4473 93.0018 134.328
ltibia 151.411
lfoot -49.4667 -41.1067
ltoes -15.929
512
root 13.366 7.94703 -16.4302 -0.419152 -75.4586 -1.19304
lowerback 33.3178 2.49086 0.682041
upperback 8.48314 3.09536 5.4164
thorax -7.99933 1.05268 4.28239
lowerneck -18.6004 12.0142 0.304356
upperneck 7.32643 16.6447 -5.15872
head 5.63366 7.73459 0.0424554
rclavicle -1.43125e-014 1.59028e-015
rhumerus -26.6759 -30.0046 -64.5392
rradius 35.6125
rwrist -4.43432
rhand -17.4607 15.8245
rfingers 7.12502
rthumb 8.79076 -13.9725
lclavicle -1.43125e-014 1.59028e-015
lhumerus -24.9067 14.0981 79.3807
lradius 39.6952
lwrist -13.3414
lhand 0.598248 35.7444
lfingers 7.12502
lthumb 26.1633 63.9615
rfemur -269.605 -106.114 199.784
rtibia 153.208
rfoot -38.0972 30.7178
rtoes -23.391
lfemur 76.8382 97.0647 153.509
ltibia 150.277
lfoot -46.4136 -41.6861
ltoes -13.0329
513
root 13.376 8.0786 -16.4372 -1.04329 -75.4473 -0.260666
lowerback 33.1513 2.49308 0.551697
upperback 8.43452 3.05294 5.27471
thorax -7.98239 1.04208 4.21878
lowerneck -18.1137 11.9807 0.714723
upperneck 6.59483 16.5241 -5.73876
head 5.40897 7.67989 -0.25024
rclavicle 1.66979e-014 -3.65764e-014
rhumerus -26.9183 -30.4139 -64.4112
rradius 35.5824
rwrist -3.7671
rhand -16.626 16.576
rfingers 7.12502
rthumb 9.59616 -13.1854
lclavicle 1.66979e-014 -3.65764e-014
lhumerus -24.9843 13.9055 79.2552
lradius 39.8474
lwrist -13.327
lhand 0.954371 35.8318
lfingers 7.12502
lthumb 26.5042 63.9979
rfemur -267.227 -107.173 198.438
rtibia 152.13
rfoot -38.9482 30.5017
rtoes -24.3565
lfemur 82.5038 100.051 157.644
ltibia 149.206
lfoot -44.8363 -41.0714
ltoes -12.0229
514
root 13.3807 8.20796 -16.4403 -1.62572 -75.3835 0.756117
lowerback 32.7876 2.47846 0.448147
upperback 8.39867 2.99681 5.12281
thorax -7.87184 1.02761 4.1379
lowerneck -17.5629 11.9342 0.933321
upperneck 5.64115 16.3801 -6.08266
head 5.06605 7.6375 -0.461881
rclavicle 1.74931e-014 6.36111e-015
rhumerus -27.0821 -31.3321 -63.9602
rradius 35.2472
rwrist -2.67519
rhand -14.9768 17.649
rfingers 7.12502
rthumb 11.1871 -12.0327
lclavicle 1.74931e-014 6.36111e-015
lhumerus -25.0361 13.9361 79.1589
lradius 39.909
lwrist -13.4997
lhand 0.917566 35.9171
lfingers 7.12502
lthumb 26.4689 64.0886
rfemur -264.457 -107.316 197.059
rtibia 150.889
rfoot -40.4455 30.2929
rtoes -24.9571
lfemur 85.2076 103.477 158.925
ltibia 148.139
lfoot -43.4269 -40.222
ltoes -13.0079
515
root 13.3873 8.35299 -16.45 -0.868853 -75.3826 0.440964
lowerback 32.3872 2.51688 0.545915
upperback 8.38127 3.0829 5.14614
thorax -7.7378 1.07471 4.08494
lowerneck -17.9218 11.8605 0.697615
upperneck 5.63898 16.2998 -5.82843
head 5.07618 7.60153 -0.34559
rclavicle 2.46493e-014 7.95139e-015
rhumerus -26.9926 -31.5882 -63.8227
rradius 35.1342
rwrist -2.79272
rhand -14.4011 17.9725
rfingers 7.12502
rthumb 11.7423 -11.6783
lclavicle 2.46493e-014 7.95139e-015
lhumerus -24.8833 13.9485 79.2065
lradius 39.879
lwrist -13.6521
lhand 0.87572 35.7604
lfingers 7.12502
lthumb 26.4289 63.9379
rfemur -266.01 -110.824 199.001
rtibia 150.1
rfoot -38.7018 29.7611
rtoes -23.7017
lfemur 86.3601 106.289 159.302
ltibia 147.075
lfoot -42.219 -39.6418
ltoes -13.2983
516
root 13.3908 8.49024 -16.4565 0.431268 -75.4986 -0.574285
lowerback 32.1595 2.5544 0.698015
upperback 8.31988 3.19867 5.30151
thorax -7.72739 1.13161 4.12991
lowerneck -18.6687 11.834 0.229867
upperneck 6.46325 16.3738 -5.33273
head 5.37268 7.61537 -0.0581888
rclavicle -2.94201e-014 7.95139e-015
rhumerus -27.0536 -30.9251 -63.8672
rradius 35.3312
rwrist -3.26937
rhand -14.8323 18.1366
rfingers 7.12502
rthumb 11.3265 -11.5375
lclavicle -2.94201e-014 7.95139e-015
lhumerus -24.9267 13.9589 79.3019
lradius 39.8795
lwrist -13.5521
lhand -0.125239 35.7714
lfingers 7.12502
lthumb 25.4704 64.0894
rfemur -265.154 -113.307 199.059
rtibia 149.158
rfoot -37.8369 29.7899
rtoes -22.5048
lfemur 87.9082 108.111 160.203
ltibia 146.088
lfoot -41.5445 -39.0023
ltoes -12.3645
517
root 13.4035 8.6176 -16.4639 0.568426 -75.4412 -0.367817
lowerback 31.7183 2.51406 0.64073
upperback 8.51117 3.15048 5.13057
thorax -7.94825 1.15455 4.31252
lowerneck -18.659 11.8623 0.196515
upperneck 6.61142 16.4312 -5.32907
head 5.41691 7.63781 -0.0411991
rclavicle 3.49861e-014 -3.33958e-014
rhumerus -27.2659 -30.5295 -64.0141
rradius 35.7041
rwrist -3.47111
rhand -15.4656 17.1743
rfingers 7.12502
rthumb 10.7157 -12.5325
lclavicle 3.49861e-014 -3.33958e-014
lhumerus -25.2067 14.0234 79.1571
lradius 39.9166
lwrist -13.5273
lhand -0.939559 35.7782
lfingers 7.12502
lthumb 24.6901 64.2052
rfemur -264.601 -115.218 199.218
rtibia 148.204
rfoot -37.5458 29.5242
rtoes -23.4693
lfemur 89.3472 110.809 160.548
ltibia 145.084
lfoot -40.4172 -37.9569
ltoes -11.0967
